<?xml version="1.0" encoding="utf-8"?>
<!-- Generator: Adobe Illustrator 23.0.1, SVG Export Plug-In . SVG Version: 6.00 Build 0)  -->
<svg version="1.1" id="Layer_1" xmlns="http://www.w3.org/2000/svg" xmlns:xlink="http://www.w3.org/1999/xlink" x="0px" y="0px"
	 viewBox="0 0 155 50" style="enable-background:new 0 0 155 50;" xml:space="preserve">
<style type="text/css">
	.st0{fill:#FFFFFF;}
</style>
<g>
	<g>
		<path class="st0" d="M84.3,21.6c0,5.2-3.3,8.2-8.9,8.2h-4.4v6.4h-5V13.9h9.5C81,13.9,84.3,16.7,84.3,21.6z M79.5,21.8
			c0-2.5-1.6-3.7-4.4-3.7h-4.2v7.6h4.2C77.9,25.6,79.5,24.3,79.5,21.8z"/>
		<path class="st0" d="M93.5,13.9v22.3h-5V13.9H93.5z"/>
		<path class="st0" d="M114.1,31.8h-10.3l-1.8,4.3h-5.2l9.7-22.3h5.2l9.5,22.3h-5.4L114.1,31.8z M112.5,27.8l-3.5-8.7l-3.5,8.7
			H112.5z"/>
		<path class="st0" d="M140.6,13.9l0,4.2h-11v5.5h10.1v4.2h-10.1v8.4h-5V13.9H140.6z"/>
	</g>
	<g>
		<path class="st0" d="M26.8,37.4l3.4,6.3c2.7-1.6,5.3-3.4,7.8-5.2l-10.6-2C26.7,36.5,26.5,36.9,26.8,37.4z"/>
		<path class="st0" d="M23,35.8c-0.1,0-0.7,0.3-1.2,0.7l-7.3,5.4c-0.7,5.5,3.9,8.7,10.1,5.1c1.2-0.7,2.4-1.3,3.5-2l-4.3-8.1
			C23.5,36.3,23.1,35.8,23,35.8z"/>
		<path class="st0" d="M44,20l-4.3,3.2c-0.5,0.4-0.6,1.1-0.1,1.5l7.3,7.3c4.6-3.4,5.2-8,2.2-11.8l-2.9-0.6
			C45.4,19.4,44.5,19.6,44,20z"/>
		<path class="st0" d="M37.6,26.2c-0.5-0.5-1.3-0.5-1.8-0.1l-9.5,7.1c-0.5,0.4-0.4,0.8,0.2,0.9l14.1,2.6c1.4-1,2.9-2.1,4.3-3.2
			L37.6,26.2z"/>
		<path class="st0" d="M40.7,18.4l-8.4-1.8c-0.6-0.1-0.8,0.1-0.3,0.6l4.2,4.2c0.5,0.5,1.3,0.5,1.8,0.1l2.9-2.2
			C41.4,19,41.3,18.6,40.7,18.4z"/>
		<path class="st0" d="M24.1,12.7l-8.9-8.9c-1.1,1.8-1.2,4.5,0.3,7.7l8.3,1.8C24.4,13.4,24.6,13.1,24.1,12.7z"/>
		<path class="st0" d="M21.3,32.2l-3.9-7.3c0,2.5-0.2,5-0.5,7.4l3.8,0.7C21.3,33.1,21.6,32.7,21.3,32.2z"/>
		<path class="st0" d="M30.4,14.7l11.9,2.6c0.6,0.1,1.6-0.1,2.1-0.5l0.4-0.3c-6.5-5-13-9.5-20.2-13.4c-3.1-1.8-5.8-1.9-7.6-0.9
			l11.4,11.4C28.8,14,29.7,14.5,30.4,14.7z"/>
		<path class="st0" d="M18.5,35l-2-0.4c-0.2,1.2-0.5,2.4-0.8,3.5l3-2.3C19.2,35.5,19.1,35.1,18.5,35z"/>
		<path class="st0" d="M23.3,31c0.3,0.6,1,0.7,1.5,0.3l9.4-7c0.5-0.4,0.6-1.1,0.1-1.5l-6.6-6.6c-0.5-0.5-1.3-0.9-2-1.1L16,13.1
			c0.5,2,0.9,4.1,1.1,6.2L23.3,31z"/>
	</g>
</g>
</svg>
